<?xml version="1.0" encoding="UTF-8" standalone="no"?><!DOCTYPE svg PUBLIC "-//W3C//DTD SVG 1.1//EN" "http://www.w3.org/Graphics/SVG/1.1/DTD/svg11.dtd"><svg width="100%" height="100%" viewBox="0 0 2352 2124" version="1.1" xmlns="http://www.w3.org/2000/svg" xmlns:xlink="http://www.w3.org/1999/xlink" xml:space="preserve" xmlns:serif="http://www.serif.com/" style="fill-rule:evenodd;clip-rule:evenodd;stroke-linecap:round;stroke-linejoin:round;stroke-miterlimit:1.5;"><g><path d="M1605.45,1864.52l0.024,123.113c-0,0 -12.862,33.44 -43.73,45.016l-971.048,-117.04c0,-0 -78.565,-18.007 -85.584,-132.474c-7.019,-114.468 0,-549.189 0,-549.189c0,-0 86.871,-84.886 104.877,-81.028l-0,221.219c-0,-0 -12.862,60.449 63.021,43.729l675.232,-183.92c0,-0 95.176,-18.006 95.176,-81.028l-0,-500.829c-0,0 74.487,-45.787 136.921,-53.504l-0,788.414c-0,-0 7.129,42.443 -18.595,72.024l-929.891,264.949c0,-0 -63.021,23.15 -41.157,75.883c21.865,52.732 73.311,63.736 105.465,64.665l833.429,90.96c0,-0 16.938,9.089 19.572,-39.871l0,-54.785l56.288,3.696Zm-592.941,-494.643c-27.148,5.855 -83.173,41.55 -76.851,111.616c6.322,70.065 76.851,59.07 76.851,59.07c-0,-0 86.565,-10.962 86.038,-94.198c-0.527,-83.235 -58.89,-82.343 -86.038,-76.488Z" style="fill:#29398e;"/><circle cx="532.998" cy="2036.7" r="21.631" style="fill:none;stroke:#000;stroke-width:4.17px;"/><path d="M505.11,821.438l0,-484.272c0,-0 14.148,-64.916 66.88,-79.064l929.891,-257.231c0,-0 45.016,-10.289 78.456,39.871l-0,356.265c-0,-0 -104.179,14.148 -129.902,37.298l-0,-253.372c-0,-0 -11.637,-50.428 -46.538,-35.282l-746.506,202.38c0,0 -38.194,8.879 -49.388,58.267c-11.195,49.388 -0,342.426 -0,342.426c-0,0 -91.205,32.165 -102.893,72.714Z" style="fill:#253a97;"/><path d="M1768.51,358.897l0,-21.731c0,-0 52.023,0.658 50.706,21.731l-50.706,-0Z" style="fill:#08aee4;"/><path d="M716.551,1766.5l861.211,-214.016c0,-0 45.273,-6.174 55.562,-29.839l0,-932.207c0,0 1.029,-27.781 80.256,-25.723l0,1074.2c0,-0 -10.737,30.237 -55.832,34.451l-600.62,63.586l-340.577,29.549Z" style="fill:#01b1ed;"/><path d="M773.835,1801.09l939.745,-64.886c0,-0 45.273,-7.432 55.562,-35.92l-3.937,-538.895l0,-590.813c0,-0 -6.507,-40.769 72.721,-38.292l-0,1293.1c-0,0 -10.737,45.659 -55.832,50.733l-567.028,-37.232l-441.231,-37.794Z" style="fill:#00b4f8;"/><path d="M1633.32,385.169l0,-225.87c0,-0 69.29,-7.244 80.256,34.242l0,172.531c0,-0 -68.751,7.243 -80.256,19.097Z" style="fill:#08aee4;"/><path d="M2140.2,1097.89c-26.135,-21.478 -42.816,-54.048 -42.816,-90.483c0,-64.611 52.457,-117.068 117.068,-117.068c13.369,0 26.218,2.246 38.189,6.381c0,0 115.639,-271.154 -57.22,-369.108c-172.859,-97.953 -638.541,-124.172 -1346.76,369.108l-7.146,5.041c4.65,15.651 7.146,32.224 7.146,49.377c0,95.667 -77.669,173.336 -173.337,173.336c-35.288,0 -68.127,-10.567 -95.523,-28.708c-33.259,33.102 -65.11,54.047 -95.297,83.846c-88.531,87.391 -162.763,172.729 -216.3,246.382c-478.96,658.924 202.711,635.513 216.3,627.582c-0,-38.702 31.421,-70.123 70.123,-70.123c32.288,0 59.508,21.87 67.644,51.592c48.817,-9.266 278.678,-54.36 279.645,-82.141l68.976,8.528c0,0 -38.042,61.556 -349.778,114.472c-9.333,27.769 -35.59,47.795 -66.487,47.795c-26.99,0 -50.44,-15.282 -62.16,-37.657c-153.002,19.339 -525.485,-3.978 -490.116,-354.455c35.37,-350.478 503.847,-742.339 503.847,-742.339c-2.756,-12.264 -4.21,-25.019 -4.21,-38.11c-0,-95.668 77.669,-173.337 173.336,-173.337c29.82,-0 57.891,7.546 82.407,20.831c-0,0 910.043,-639.995 1471.25,-374.726c0,-0 230.012,121.708 60.901,493.996c25.459,21.482 41.641,53.618 41.641,89.505c0,64.611 -52.456,117.067 -117.067,117.067c-19.72,0 -38.308,-4.886 -54.617,-13.513c-56.552,114.367 -321.911,343.837 -321.911,343.837l-0,-48.359c89.691,-40.128 302.276,-308.549 302.276,-308.549Zm28.189,-154.096c-18.249,-0 -33.065,14.816 -33.065,33.065c0,18.249 14.816,33.065 33.065,33.065c18.249,-0 33.065,-14.816 33.065,-33.065c-0,-18.249 -14.816,-33.065 -33.065,-33.065Zm-1568.49,-84.224c-24.986,0 -45.272,20.286 -45.272,45.273c-0,24.986 20.286,45.272 45.272,45.272c24.987,0 45.273,-20.286 45.273,-45.272c-0,-24.987 -20.286,-45.273 -45.273,-45.273Z" style="fill:#fab10d;"/></g></svg>